<svg xmlns="http://www.w3.org/2000/svg" width="350" height="350" viewBox="0 0 350 350" fill="none">
  <path d="M175 315C252.32 315 315 252.32 315 175C315 97.6801 252.32 35 175 35C97.6801 35 35 97.6801 35 175C35 252.32 97.6801 315 175 315Z" stroke="#222326" stroke-width="23.8095"/>
  <path d="M201.667 225.476C200.714 224.524 200.714 222.619 199.762 220.715C199.762 218.81 198.809 216.905 198.809 215C196.905 216.905 195 217.857 193.095 219.762C191.19 221.667 188.333 222.619 186.429 223.572C183.571 224.524 181.667 225.476 177.857 226.429C175 227.381 171.19 227.381 168.333 227.381C162.619 227.381 157.857 226.429 153.095 224.524C148.333 222.619 144.524 220.714 140.714 217.857C136.905 215 135 211.191 133.095 207.381C131.19 203.572 130.238 198.81 130.238 194.048C130.238 182.619 135 173.095 143.571 167.381C152.143 160.715 165.476 157.857 182.619 157.857H198.809V151.191C198.809 145.476 196.905 141.667 194.048 138.81C190.238 135.953 185.476 134.048 178.809 134.048C173.095 134.048 169.286 135 166.429 137.857C163.571 140.714 162.619 143.572 162.619 147.381H134.048C134.048 142.619 135 137.857 136.905 134.048C138.809 130.238 141.667 126.429 146.429 122.619C150.238 119.762 155 116.905 160.714 115C166.429 113.095 173.095 112.143 180.714 112.143C187.381 112.143 193.095 113.095 198.809 115C204.524 116.905 209.286 118.81 214.048 122.619C217.857 125.476 221.667 130.238 223.571 135C225.476 139.762 227.381 145.476 227.381 152.143V199.762C227.381 205.476 227.381 210.238 228.333 214.048C229.286 217.857 230.238 221.667 231.19 223.572V225.476H201.667ZM174.048 205.476C176.905 205.476 179.762 205.476 181.667 204.524C184.524 203.572 186.429 202.619 188.333 201.667C190.238 200.715 192.143 199.762 193.095 197.857L196.905 194.048V175H182.619C177.857 175 174.048 175 171.19 175.953C168.333 176.905 165.476 177.857 163.571 179.762C161.667 181.667 159.762 182.619 158.809 185.476C157.857 187.381 157.857 190.238 157.857 192.143C157.857 195.953 158.809 198.81 161.667 201.667C164.524 204.524 169.286 205.476 174.048 205.476V205.476Z" fill="#222326"/>
</svg>
